# Blender 3.4.1
# www.blender.org
mtllib cube.mtl
o Cube
v -2.387887 3.398201 -11.870122
v -3.500179 2.120365 -12.933111
v -1.573787 1.864265 -10.878012
v -2.686080 0.586430 -11.940998
v -3.837041 3.517270 -10.496888
v -4.949334 2.239434 -11.559875
v -3.022942 1.983335 -9.504777
v -4.135233 0.705499 -10.567764
vn 0.5561 0.6389 0.5315
vn 0.4070 -0.7670 0.4961
vn -0.7246 0.0595 0.6866
vn -0.5561 -0.6389 -0.5315
vn 0.7246 -0.0595 -0.6866
vn -0.4070 0.7670 -0.4961
vt 0.625000 0.500000
vt 0.375000 0.500000
vt 0.625000 0.750000
vt 0.375000 0.750000
vt 0.875000 0.500000
vt 0.625000 0.250000
vt 0.125000 0.500000
vt 0.375000 0.250000
vt 0.875000 0.750000
vt 0.625000 1.000000
vt 0.625000 0.000000
vt 0.375000 0.000000
vt 0.375000 1.000000
vt 0.125000 0.750000
s 0
usemtl Material.001
f 5/5/1 3/3/1 1/1/1
f 3/3/2 8/13/2 4/4/2
f 7/11/3 6/8/3 8/12/3
f 2/2/4 8/14/4 6/7/4
f 1/1/5 4/4/5 2/2/5
f 5/6/6 2/2/6 6/8/6
f 5/5/1 7/9/1 3/3/1
f 3/3/2 7/10/2 8/13/2
f 7/11/3 5/6/3 6/8/3
f 2/2/4 4/4/4 8/14/4
f 1/1/5 3/3/5 4/4/5
f 5/6/6 1/1/6 2/2/6
